# xmcd
#
# Track frame offsets:
#	150
#	21558
#	39293
#	56110
#	73119
#	86127
#	104372
#	120305
#	136365
#	150451
#	170400
#	189237
#	206586
#	224915
#	241833
#
# Disc length: 3450 seconds
# Revision: 26
# Processed by: cddbd v1.5.2PL0 Copyright (c) Steve Scherf et al.
# Submitted via: dBpowerAMP V12.0
#
DISCID=d70d780f
DTITLE=Bruno and Marrone - Inevitável
DYEAR=2003
DGENRE=Sertanejo
TTITLE0=Será
TTITLE1=Vai Dar Namoro
TTITLE2=Deixa
TTITLE3=É Você Que Eu Amo
TTITLE4=Pra lá Que Eu Vou
TTITLE5=Sonhos Perdidos
TTITLE6=Trânsito Parado
TTITLE7=Doce Desejo
TTITLE8=Apaziguar
TTITLE9=Se Não Tivesse Ido
TTITLE10=Você Não Me Ensinou a Te Esquecer
TTITLE11=Inevitável
TTITLE12=Coração de pedra
TTITLE13=Foi Engano
TTITLE14=Ligação Urbana [Ao Vivo]
EXTD=
EXTT0=
EXTT1=
EXTT2=
EXTT3=
EXTT4=
EXTT5=
EXTT6=
EXTT7=
EXTT8=
EXTT9=
EXTT10=
EXTT11=
EXTT12=
EXTT13=
EXTT14=
PLAYORDER=
